<svg width="584" height="378" viewBox="0 0 584 378" fill="none" xmlns="http://www.w3.org/2000/svg">
<path d="M574.36 377.948C579.342 377.948 583.612 373.678 583.612 368.695L583.612 9.25293C583.612 4.27054 579.342 -0.000183479 574.36 -0.000183914C569.378 -0.00018435 565.107 4.27054 565.107 9.25293L565.107 20.6412L422.051 20.6412L422.051 9.25292C422.051 4.27052 417.781 -0.000197603 412.799 -0.000198038C407.817 -0.000198474 403.546 4.27052 403.546 9.25291L403.546 20.6412L69.7481 20.6412L69.7481 9.25288C69.7481 4.27049 65.4779 -0.000228402 60.4958 -0.000228838C55.5138 -0.000229273 51.2433 4.27049 51.2433 9.25288L51.2432 234.883L-0.00065888 234.883L-0.000661057 259.795C4.26966 255.524 9.96339 252.677 16.3688 252.677C29.1799 252.677 39.1441 262.642 39.1441 275.454C39.1441 288.266 29.1799 298.23 16.3688 298.23C9.96339 298.23 4.26966 295.383 -0.000663795 291.113L-0.000665973 316.025L51.2432 316.025L51.2432 368.695C51.2432 373.678 55.5137 377.948 60.4958 377.948L574.36 377.948Z" fill="#FFBD01"/>
</svg>
