<svg width="176" height="89" viewBox="0 0 176 89" fill="none" xmlns="http://www.w3.org/2000/svg">
<path d="M0.975 0.499999V18H11.7V16.2H2.85V0.499999H0.975ZM25.5436 11.55C25.5436 8.1 22.9936 5.6 19.7186 5.6C16.2686 5.6 13.5436 8.35 13.5436 11.85C13.5436 15.5 16.2186 18.25 19.7436 18.25C22.6436 18.25 24.9686 16.625 25.4436 14.15H23.6186C23.2936 15.65 21.7186 16.6 19.7936 16.6C17.2436 16.6 15.5186 14.825 15.3436 12.25H25.5186C25.5436 12.1 25.5436 11.725 25.5436 11.55ZM15.4186 10.7C15.8436 8.6 17.4936 7.25 19.6436 7.25C21.8186 7.25 23.4186 8.7 23.5936 10.7H15.4186ZM29.2305 5.85V7.4H36.7055V10.725H34.6305C30.7305 10.725 28.4305 12.15 28.4305 14.775C28.4305 16.775 30.0305 18.25 32.4555 18.25C34.4055 18.25 35.8555 17.375 36.7055 15.975V18H38.5305V5.85H29.2305ZM32.7305 16.775C31.0805 16.775 30.0555 15.9 30.0555 14.65C30.0555 12.925 31.6805 12.125 34.6555 12.125H36.7055V13.125C36.7055 15.05 35.1055 16.775 32.7305 16.775ZM49.0955 5.85H42.7705V18H44.5955V7.55H49.0955V5.85ZM62.8863 5.85H52.2363V18H54.0613V7.55H61.0613V18H62.8863V5.85ZM79.9018 5.6C78.0018 5.6 76.5268 6.575 75.7518 8.225V0.499999H73.9268V18H75.7518V11.175C75.7518 8.85 77.2518 7.325 79.5268 7.325C81.7518 7.325 83.2018 8.85 83.2018 11.175V18H85.0268V11C85.0268 7.675 83.0518 5.6 79.9018 5.6ZM94.8264 5.6C91.3014 5.6 88.5514 8.35 88.5514 11.925C88.5514 15.5 91.3014 18.25 94.8264 18.25C98.3514 18.25 101.126 15.5 101.126 11.925C101.126 8.35 98.3514 5.6 94.8264 5.6ZM94.8264 7.325C97.3514 7.325 99.3264 9.325 99.3264 11.925C99.3264 14.5 97.3514 16.525 94.8264 16.525C92.3014 16.525 90.3514 14.5 90.3514 11.925C90.3514 9.325 92.3014 7.325 94.8264 7.325ZM107.36 18H108.835L112.285 8.45L115.735 18H117.235L121.685 5.85H119.735L116.485 15.4L113.035 5.85H111.535L108.11 15.4L104.86 5.85H102.91L107.36 18ZM137.669 7.55V5.85H134.269V2.5H132.444V5.85H130.044V7.55H132.444V13.925C132.444 16.775 134.019 18.125 136.494 18.125C136.869 18.125 137.344 18.075 137.669 18V16.325C137.419 16.4 137.094 16.425 136.819 16.425C135.269 16.425 134.269 15.75 134.269 13.9V7.55H137.669ZM145.702 5.6C142.177 5.6 139.427 8.35 139.427 11.925C139.427 15.5 142.177 18.25 145.702 18.25C149.227 18.25 152.002 15.5 152.002 11.925C152.002 8.35 149.227 5.6 145.702 5.6ZM145.702 7.325C148.227 7.325 150.202 9.325 150.202 11.925C150.202 14.5 148.227 16.525 145.702 16.525C143.177 16.525 141.227 14.5 141.227 11.925C141.227 9.325 143.177 7.325 145.702 7.325ZM7.525 38.6C5.2 38.6 3.45 39.725 2.575 41.65V33.5H0.75V51H2.575V48.175C3.45 50.1 5.2 51.25 7.525 51.25C10.875 51.25 13.55 48.425 13.55 44.9C13.55 41.375 10.875 38.6 7.525 38.6ZM7.175 49.525C4.525 49.525 2.575 47.575 2.575 44.9C2.575 42.25 4.525 40.3 7.175 40.3C9.75 40.3 11.75 42.35 11.75 44.9C11.75 47.5 9.75 49.525 7.175 49.525ZM28.1762 38.85H26.3762V45.4C26.3762 47.9 24.9012 49.525 22.6512 49.525C20.4012 49.525 18.9262 47.9 18.9262 45.4V38.85H17.1262V45.4C17.1262 48.9 19.3512 51.25 22.6512 51.25C25.9512 51.25 28.1762 48.9 28.1762 45.4V38.85ZM33.3996 33.55C32.6746 33.55 32.0996 34.15 32.0996 34.85C32.0996 35.575 32.6746 36.175 33.3996 36.175C34.0996 36.175 34.7246 35.575 34.7246 34.85C34.7246 34.15 34.0996 33.55 33.3996 33.55ZM32.4746 38.85V51H34.2996V38.85H32.4746ZM40.4451 33.5H38.6201V51H40.4451V33.5ZM54.6006 33.5V41.65C53.7256 39.725 51.9756 38.6 49.6506 38.6C46.3006 38.6 43.6256 41.375 43.6256 44.9C43.6256 48.425 46.3006 51.25 49.6506 51.25C51.9756 51.25 53.7256 50.1 54.6006 48.175V51H56.4256V33.5H54.6006ZM50.0006 49.525C47.4256 49.525 45.4256 47.5 45.4256 44.9C45.4256 42.35 47.4256 40.3 50.0006 40.3C52.6506 40.3 54.6006 42.25 54.6006 44.9C54.6006 47.575 52.6506 49.525 50.0006 49.525ZM67.582 38.85V40.4H75.057V43.725H72.982C69.082 43.725 66.782 45.15 66.782 47.775C66.782 49.775 68.382 51.25 70.807 51.25C72.757 51.25 74.207 50.375 75.057 48.975V51H76.882V38.85H67.582ZM71.082 49.775C69.432 49.775 68.407 48.9 68.407 47.65C68.407 45.925 70.032 45.125 73.007 45.125H75.057V46.125C75.057 48.05 73.457 49.775 71.082 49.775ZM91.7523 51C94.6023 51 96.2273 49.675 96.2273 47.45C96.2273 42.95 88.9273 44.875 88.9273 42.05C88.9273 41.05 89.8023 40.575 91.2023 40.575H95.4523V38.825H91.4023C88.7523 38.825 87.1773 40.05 87.1773 42.175C87.1773 46.625 94.4523 44.65 94.4523 47.55C94.4523 48.775 93.5023 49.275 91.8023 49.275H87.5273V51H91.7523ZM105.091 38.6C101.566 38.6 98.816 41.35 98.816 44.925C98.816 48.5 101.566 51.25 105.091 51.25C108.616 51.25 111.391 48.5 111.391 44.925C111.391 41.35 108.616 38.6 105.091 38.6ZM105.091 40.325C107.616 40.325 109.591 42.325 109.591 44.925C109.591 47.5 107.616 49.525 105.091 49.525C102.566 49.525 100.616 47.5 100.616 44.925C100.616 42.325 102.566 40.325 105.091 40.325ZM116.667 33.5H114.842V51H116.667V33.5ZM121.039 38.85V40.4H128.514V43.725H126.439C122.539 43.725 120.239 45.15 120.239 47.775C120.239 49.775 121.839 51.25 124.264 51.25C126.214 51.25 127.664 50.375 128.514 48.975V51H130.339V38.85H121.039ZM124.539 49.775C122.889 49.775 121.864 48.9 121.864 47.65C121.864 45.925 123.489 45.125 126.464 45.125H128.514V46.125C128.514 48.05 126.914 49.775 124.539 49.775ZM140.904 38.85H134.579V51H136.404V40.55H140.904V38.85ZM12.025 77.55C12.025 74.1 9.475 71.6 6.2 71.6C2.75 71.6 0.025 74.35 0.025 77.85C0.025 81.5 2.7 84.25 6.225 84.25C9.125 84.25 11.45 82.625 11.925 80.15H10.1C9.775 81.65 8.2 82.6 6.275 82.6C3.725 82.6 2 80.825 1.825 78.25H12C12.025 78.1 12.025 77.725 12.025 77.55ZM1.9 76.7C2.325 74.6 3.975 73.25 6.125 73.25C8.3 73.25 9.9 74.7 10.075 76.7H1.9ZM26.2369 71.85H15.5869V84H17.4119V73.55H24.4119V84H26.2369V71.85ZM41.7721 77.55C41.7721 74.1 39.2221 71.6 35.9471 71.6C32.4971 71.6 29.7721 74.35 29.7721 77.85C29.7721 81.5 32.4471 84.25 35.9721 84.25C38.8721 84.25 41.1971 82.625 41.6721 80.15H39.8471C39.5221 81.65 37.9471 82.6 36.0221 82.6C33.4721 82.6 31.7471 80.825 31.5721 78.25H41.7471C41.7721 78.1 41.7721 77.725 41.7721 77.55ZM31.6471 76.7C32.0721 74.6 33.7221 73.25 35.8721 73.25C38.0471 73.25 39.6471 74.7 39.8221 76.7H31.6471ZM51.659 71.85H45.334V84H47.159V73.55H51.659V71.85ZM64.0488 71.85V74.55C63.1738 72.675 61.4238 71.575 59.0988 71.575C55.7488 71.575 53.0738 74.3 53.0738 77.725C53.0738 81.15 55.7488 83.9 59.0988 83.9C61.4238 83.9 63.1738 82.8 64.0488 80.9V86.9H55.4488V88.6H65.8738V71.85H64.0488ZM59.4488 82.225C56.8738 82.225 54.8738 80.25 54.8738 77.725C54.8738 75.225 56.8738 73.25 59.4488 73.25C62.0988 73.25 64.0488 75.15 64.0488 77.725C64.0488 80.325 62.0988 82.225 59.4488 82.225ZM78.75 71.85L74.75 81.65L70.775 71.85H68.8L73.825 83.775L71.725 88.6H73.675L80.7 71.85H78.75ZM94.2738 84C97.1238 84 98.7488 82.675 98.7488 80.45C98.7488 75.95 91.4488 77.875 91.4488 75.05C91.4488 74.05 92.3238 73.575 93.7238 73.575H97.9738V71.825H93.9238C91.2738 71.825 89.6988 73.05 89.6988 75.175C89.6988 79.625 96.9738 77.65 96.9738 80.55C96.9738 81.775 96.0238 82.275 94.3238 82.275H90.0488V84H94.2738ZM110.053 71.85L106.053 81.65L102.078 71.85H100.103L105.128 83.775L103.028 88.6H104.978L112.003 71.85H110.053ZM118.503 84C121.353 84 122.978 82.675 122.978 80.45C122.978 75.95 115.678 77.875 115.678 75.05C115.678 74.05 116.553 73.575 117.953 73.575H122.203V71.825H118.153C115.503 71.825 113.928 73.05 113.928 75.175C113.928 79.625 121.203 77.65 121.203 80.55C121.203 81.775 120.253 82.275 118.553 82.275H114.278V84H118.503ZM132.176 73.55V71.85H128.776V68.5H126.951V71.85H124.551V73.55H126.951V79.925C126.951 82.775 128.526 84.125 131.001 84.125C131.376 84.125 131.851 84.075 132.176 84V82.325C131.926 82.4 131.601 82.425 131.326 82.425C129.776 82.425 128.776 81.75 128.776 79.9V73.55H132.176ZM145.934 77.55C145.934 74.1 143.384 71.6 140.109 71.6C136.659 71.6 133.934 74.35 133.934 77.85C133.934 81.5 136.609 84.25 140.134 84.25C143.034 84.25 145.359 82.625 145.834 80.15H144.009C143.684 81.65 142.109 82.6 140.184 82.6C137.634 82.6 135.909 80.825 135.734 78.25H145.909C145.934 78.1 145.934 77.725 145.934 77.55ZM135.809 76.7C136.234 74.6 137.884 73.25 140.034 73.25C142.209 73.25 143.809 74.7 143.984 76.7H135.809ZM163.671 71.6C161.871 71.6 160.171 72.525 159.471 74.225C158.771 72.475 157.346 71.6 155.296 71.6C153.796 71.6 152.171 72.25 151.321 73.95V71.85H149.496V84H151.321V77.05C151.321 74.3 153.146 73.325 154.746 73.325C156.871 73.325 158.146 74.725 158.146 77.05V84H159.971V77.05C159.971 74.35 161.746 73.325 163.396 73.325C165.521 73.325 166.796 74.725 166.796 77.05V84H168.621V76.725C168.621 73.525 166.671 71.6 163.671 71.6ZM174.028 84.25C174.878 84.25 175.503 83.625 175.503 82.8C175.503 82 174.878 81.35 174.028 81.35C173.203 81.35 172.578 82 172.578 82.8C172.578 83.625 173.203 84.25 174.028 84.25Z" fill="white"/>
</svg>
