<svg width="360" height="65" viewBox="0 0 360 65" fill="none" xmlns="http://www.w3.org/2000/svg">
<rect x="296.132" width="63.8682" height="63.8682" fill="#A39BF9" fill-opacity="0.01"/>
<path d="M296.132 0L296.132 63.8682" stroke="white" stroke-opacity="0.33" stroke-width="0.997941"/>
<path d="M360 64L-1.90735e-06 64" stroke="white" stroke-opacity="0.33" stroke-width="0.997941"/>
<g clip-path="url(#clip0_1201_4537)">
<path d="M99.794 45.6215L95.8164 18.9604H84.1851L80.2089 45.6215H85.3913L86.5401 37.8702C86.8388 35.8253 88.2317 34.463 90.0008 34.463C91.7699 34.463 93.1599 35.8282 93.4657 37.8732L94.6145 45.6244L99.794 45.6215ZM92.261 27.4859C92.261 28.8808 91.3577 29.8101 90.0008 29.8101C88.6438 29.8101 87.742 28.8808 87.742 27.4859V26.5551C87.742 25.1603 88.6452 24.2309 90.0008 24.2309C91.3563 24.2309 92.261 25.1603 92.261 26.5551V27.4859ZM70.2678 45.6215H75.3899V18.9604H61.5299V39.1113C61.5299 40.2269 60.812 40.9716 59.7221 40.9716C58.6322 40.9716 57.9142 40.2328 57.9142 39.1113V18.9604H44.0557V45.6215H49.1735V25.4706C49.1735 24.3535 49.8915 23.6103 50.9799 23.6103C52.0684 23.6103 52.7878 24.3491 52.7878 25.4706V45.6215H66.6477V25.4706C66.6477 24.3535 67.3657 23.6103 68.4556 23.6103C69.5455 23.6103 70.2635 24.3491 70.2635 25.4706V45.6215H70.2678ZM24.8009 48.8987L37.67 45.6702V42.0458H24.8009V37.3575L17.9629 39.0655V42.0487H24.8009V48.8987ZM24.8009 37.356L37.67 34.1275V30.5031H24.8009V25.8148L17.9629 27.5184V30.5016H24.8009V37.3516V37.356ZM24.8009 25.8133L37.67 22.5849V18.9604H24.8009V25.8133Z" fill="white"/>
</g>
<defs>
<clipPath id="clip0_1201_4537">
<rect width="81.8311" height="29.9382" fill="white" transform="translate(17.9629 18.9604)"/>
</clipPath>
</defs>
</svg>
