<svg width="201" height="47" viewBox="0 0 201 47" fill="none" xmlns="http://www.w3.org/2000/svg">
<rect width="200.966" height="47" rx="8" fill="#39E681"/>
<path d="M38.113 21.7279L37.549 22.2919L40.129 24.8359H33.793V25.6279H40.129L37.549 28.1599L38.113 28.7239L41.617 25.2319L38.113 21.7279ZM46.5869 28.2439V29.0839C46.7309 29.1079 46.8989 29.1079 47.0309 29.1079C48.2909 29.1079 49.0589 28.2679 49.0589 26.7319V20.5999H48.1469V26.5279C48.1469 27.7159 47.6909 28.2559 46.8029 28.2559C46.7429 28.2559 46.6469 28.2559 46.5869 28.2439ZM55.356 20.4799C52.968 20.4799 51.12 22.3519 51.12 24.7759C51.12 27.2239 52.968 29.1199 55.356 29.1199C57.744 29.1199 59.592 27.2239 59.592 24.7759C59.592 22.3519 57.744 20.4799 55.356 20.4799ZM55.356 21.3559C57.216 21.3559 58.656 22.8439 58.656 24.7759C58.656 26.7319 57.216 28.2439 55.356 28.2439C53.496 28.2439 52.056 26.7319 52.056 24.7759C52.056 22.8439 53.496 21.3559 55.356 21.3559ZM61.7246 20.5999V28.9999H62.6246V20.5999H61.7246ZM65.1253 20.5999V28.9999H66.0253V22.2679L70.7533 28.9999H71.5933V20.5999H70.6813V27.3439L65.9773 20.5999H65.1253ZM83.3591 28.9999H84.3431L80.9711 20.5999H80.1551L76.7951 28.9999H77.7551L78.5711 26.9479H82.5431L83.3591 28.9999ZM78.9191 26.0839L80.5631 21.9319L82.2071 26.0839H78.9191ZM92.7729 20.5999H89.5449V28.9999H90.4449V25.4359H92.7729C94.1889 25.4359 95.2569 24.3919 95.2569 23.0119C95.2569 21.6439 94.1889 20.5999 92.7729 20.5999ZM92.7729 24.5719H90.4449V21.4639H92.7729C93.6609 21.4639 94.3449 22.1359 94.3449 23.0119C94.3449 23.8879 93.6609 24.5719 92.7729 24.5719ZM103.235 28.9999L100.787 25.3639C101.975 25.1599 102.755 24.2479 102.755 22.9759C102.755 21.6199 101.663 20.5999 100.271 20.5999H97.2347V28.9999H98.1347V25.3999H99.7907L102.143 28.9999H103.235ZM98.1347 21.4639H100.247C101.171 21.4639 101.843 22.0999 101.843 22.9759C101.843 23.8759 101.171 24.5359 100.247 24.5359H98.1347V21.4639ZM108.648 20.4799C106.26 20.4799 104.412 22.3519 104.412 24.7759C104.412 27.2239 106.26 29.1199 108.648 29.1199C111.036 29.1199 112.884 27.2239 112.884 24.7759C112.884 22.3519 111.036 20.4799 108.648 20.4799ZM108.648 21.3559C110.508 21.3559 111.948 22.8439 111.948 24.7759C111.948 26.7319 110.508 28.2439 108.648 28.2439C106.788 28.2439 105.348 26.7319 105.348 24.7759C105.348 22.8439 106.788 21.3559 108.648 21.3559ZM122.805 24.5359H119.049V25.4239H121.941C121.809 27.0439 120.537 28.2439 118.905 28.2439C117.021 28.2439 115.593 26.7319 115.593 24.7759C115.593 22.8439 117.021 21.3559 118.857 21.3559C120.045 21.3559 121.257 22.0759 121.629 23.0599H122.649C122.241 21.6559 120.585 20.4799 118.857 20.4799C116.493 20.4799 114.657 22.3519 114.657 24.7759C114.657 27.2239 116.481 29.1199 118.857 29.1199C121.113 29.1199 122.841 27.4159 122.841 25.1119C122.841 24.9319 122.829 24.6919 122.805 24.5359ZM130.98 28.9999L128.532 25.3639C129.72 25.1599 130.5 24.2479 130.5 22.9759C130.5 21.6199 129.408 20.5999 128.016 20.5999H124.98V28.9999H125.88V25.3999H127.536L129.888 28.9999H130.98ZM125.88 21.4639H127.992C128.916 21.4639 129.588 22.0999 129.588 22.9759C129.588 23.8759 128.916 24.5359 127.992 24.5359H125.88V21.4639ZM138.524 28.9999H139.508L136.136 20.5999H135.32L131.96 28.9999H132.92L133.736 26.9479H137.708L138.524 28.9999ZM134.084 26.0839L135.728 21.9319L137.372 26.0839H134.084ZM141.215 28.9999H142.115V22.4239L145.079 28.9999H145.763L148.739 22.4239V28.9999H149.651V20.5999H148.727L145.475 27.6679L142.283 20.5999H141.215V28.9999ZM152.151 28.9999H153.051V22.4239L156.015 28.9999H156.699L159.675 22.4239V28.9999H160.587V20.5999H159.663L156.411 27.6679L153.219 20.5999H152.151V28.9999ZM163.087 20.5999V28.9999H167.779V28.1359H163.987V24.9439H167.371V24.0799H163.987V21.4639H167.779V20.5999H163.087Z" fill="#463C73"/>
</svg>
