<svg width="46" height="31" viewBox="0 0 46 31" fill="none" xmlns="http://www.w3.org/2000/svg">
<path d="M38.7253 18.4011C38.7253 19.3957 37.9049 20.2246 36.9203 20.2246C35.9358 20.2246 35.1153 19.3957 35.1153 18.4011C35.1153 17.4064 35.9358 16.5775 36.9203 16.5775C37.9049 16.5775 38.7253 17.4064 38.7253 18.4011ZM26.2545 12.5437C26.2545 14.3672 24.7776 15.8592 22.9726 15.8592C21.1677 15.8592 19.6908 14.3672 19.6908 12.5437C19.6908 10.7201 21.1677 9.22817 22.9727 9.22817C24.7776 9.22817 26.2545 10.7201 26.2545 12.5437ZM10.83 18.4011C10.83 19.3957 10.0095 20.2246 9.02497 20.2246C8.04043 20.2246 7.21998 19.3957 7.21998 18.4011C7.21998 17.4064 8.04043 16.5775 9.02497 16.5775C10.0095 16.5775 10.83 17.4064 10.83 18.4011ZM46 31L46 3.64706L42.39 -1.57798e-07L0 -2.01072e-06L-1.35505e-06 31L46 31Z" fill="#F62187"/>
</svg>
