<svg width="256" height="416" viewBox="0 0 256 416" fill="none" xmlns="http://www.w3.org/2000/svg">
<path d="M0.348955 44.2044L7.24622 44.2044C3.22286 46.5008 0.348955 51.0935 0.348954 56.2602C0.348953 63.7233 5.52184 69.4641 11.8443 69.4641L18.7415 69.4641L18.7415 305.986C18.7415 366.265 67.5966 415.636 127.947 415.636C188.298 415.636 237.153 366.839 237.153 305.986L237.153 69.4641L244.05 69.4641C250.372 69.4641 255.545 63.7233 255.545 56.2603C255.545 51.0935 252.671 45.9267 248.648 44.2045L255.545 44.2045L255.545 0.000152588L237.153 0.00015098L19.3162 0.000131936L0.923575 0.000130328L0.923571 44.2044L0.348955 44.2044Z" fill="#A39BF9"/>
</svg>
