<svg width="395" height="301" viewBox="0 0 395 301" fill="none" xmlns="http://www.w3.org/2000/svg">
<path d="M394.1 7.56141C393.352 2.05006 388.118 -1.09923 383.631 0.475446L6.73042 89.4442C5.9826 89.4442 5.23476 90.2316 4.48695 90.2316C3.73913 91.019 2.99129 91.0191 2.24347 91.8064C2.24347 91.8064 2.24347 91.8064 2.24347 92.5938C1.49565 93.3811 1.49567 94.1684 0.747855 94.9557C0.747855 94.9557 0.747855 94.9557 0.747855 95.7431C0.747855 96.5304 -8.46825e-06 97.3177 -8.40264e-06 98.8924L-4.07262e-06 202.821C-4.03981e-06 203.608 4.16578e-05 205.183 0.74786 205.97C0.74786 205.97 0.74786 205.97 0.74786 206.757C0.74786 207.545 1.49566 208.332 2.24347 209.119C2.99129 209.907 3.73913 210.694 4.48695 210.694C5.23477 211.481 5.98261 211.481 6.73043 211.481L383.631 300.45C388.865 301.238 393.352 298.088 394.1 293.364L394.1 7.56141Z" fill="#C6C6C6"/>
</svg>
