<svg width="82" height="31" viewBox="0 0 82 31" fill="none" xmlns="http://www.w3.org/2000/svg">
<path d="M81.8311 27.6215L77.8535 0.960449H66.2222L62.246 27.6215H67.4284L68.5772 19.8702C68.8759 17.8253 70.2688 16.463 72.0379 16.463C73.807 16.463 75.197 17.8282 75.5028 19.8732L76.6516 27.6244L81.8311 27.6215ZM74.2981 9.48594C74.2981 10.8808 73.3949 11.8101 72.0379 11.8101C70.6809 11.8101 69.7791 10.8808 69.7791 9.48594V8.55508C69.7791 7.16026 70.6823 6.23089 72.0379 6.23089C73.3934 6.23089 74.2981 7.16026 74.2981 8.55508V9.48594ZM52.3049 27.6215H57.427V0.960449H43.5671V21.1113C43.5671 22.2269 42.8491 22.9716 41.7592 22.9716C40.6693 22.9716 39.9513 22.2328 39.9513 21.1113V0.960449H26.0928V27.6215H31.2106V7.47056C31.2106 6.35352 31.9286 5.61031 33.0171 5.61031C34.1055 5.61031 34.8249 6.34909 34.8249 7.47056V27.6215H48.6848V7.47056C48.6848 6.35352 49.4028 5.61031 50.4927 5.61031C51.5826 5.61031 52.3006 6.34909 52.3006 7.47056V27.6215H52.3049ZM6.83805 30.8987L19.7071 27.6702V24.0458H6.83805V19.3575L0 21.0655V24.0487H6.83805V30.8987ZM6.83805 19.356L19.7071 16.1275V12.5031H6.83805V7.81482L0 9.51845V12.5016H6.83805V19.3516V19.356ZM6.83805 7.81335L19.7071 4.58489V0.960449H6.83805V7.81335Z" fill="white"/>
</svg>
