<svg width="266" height="313" viewBox="0 0 266 313" fill="none" xmlns="http://www.w3.org/2000/svg">
<path d="M203.315 146.805C203.315 153.399 197.953 159.169 190.942 159.169L75.0571 159.169C68.4587 159.169 62.685 153.811 62.685 146.805C62.685 140.21 68.0463 134.44 75.0571 134.44L190.942 134.44C197.541 134.44 203.315 139.798 203.315 146.805ZM168.26 54.4824C168.26 73.8536 152.589 89.5154 133.206 89.5154C113.823 89.5154 98.1517 73.8536 98.1517 54.4824C98.1517 35.1112 113.823 19.4493 133.206 19.4493C152.177 19.4493 168.26 35.1112 168.26 54.4824ZM266 92.8126L266 0.0781398L-0.000244141 0.078125L-0.0002493 92.8126L7.0106 92.8126L9.89743 92.8126L9.89743 93.2248C15.2587 94.4612 19.3827 99.4071 19.3827 105.177C19.3827 110.947 15.2587 115.893 9.89743 117.13L9.89742 159.169L27.2184 159.169L27.2183 312.078L235.07 312.078L235.07 158.757L252.39 158.757L252.39 117.13C247.442 115.893 243.318 110.947 243.318 105.177C243.318 99.4071 247.442 94.4612 252.803 93.2248L252.803 92.8126L255.69 92.8126L266 92.8126Z" fill="#FF7FC9"/>
</svg>
