<svg width="456" height="28" viewBox="0 0 456 28" fill="none" xmlns="http://www.w3.org/2000/svg">
<path d="M18.1048 0.458988V20.0296C18.1048 20.9476 17.5095 21.5591 16.616 21.5591C15.9919 21.5591 15.5149 21.1001 15.4255 20.4279L12.8961 0.458988H0.840088V26.7575H5.90031V7.18685C5.90031 6.26888 6.49554 5.65739 7.38911 5.65739C8.01317 5.65739 8.49022 6.11638 8.57958 6.78857L11.109 26.7575H23.165V0.458988H18.1048ZM35.688 5.65739H43.5774V0.458988H28.6994V26.7575H43.5831V21.5591H35.6937C34.5407 21.5591 33.7596 20.764 33.7596 19.5721V18.0426C33.7596 16.8493 34.5335 16.0542 35.6937 16.0542H43.5831V10.8558H35.6937C34.1761 10.8558 33.1644 9.81936 33.1644 8.25733C33.1644 6.69529 34.1732 5.65739 35.6937 5.65739H35.688ZM63.8427 10.8558V0.458988H48.6664V26.7575H53.7266V18.8037C53.7266 17.1528 54.7989 16.0512 56.4059 16.0512H63.8485C65.4555 16.0512 66.5278 17.1528 66.5278 18.8037V26.7545H71.588V18.8037C71.588 14.0332 68.4922 10.8528 63.8485 10.8528L63.8427 10.8558ZM56.2517 11.4673C54.3781 11.4673 53.1256 10.1836 53.1256 8.25733C53.1256 6.33106 54.3766 5.0459 56.2517 5.0459C58.1267 5.0459 59.3777 6.32958 59.3777 8.25733C59.3777 10.1851 58.1267 11.4673 56.2517 11.4673ZM84.5808 10.2443V14.8342H85.0276C87.1707 14.8342 88.599 16.3029 88.599 18.5046C88.599 20.7062 87.1707 22.1735 85.0276 22.1735C82.8845 22.1735 81.4562 20.7062 81.4562 18.5046V8.56233C81.4562 6.54427 82.7648 5.1984 84.7307 5.1984C86.6966 5.1984 88.0038 6.54427 88.0038 8.56233H93.064C93.064 3.42464 89.7304 0 84.7307 0C79.731 0 76.396 3.42464 76.396 8.56233V26.7575H93.064V10.2443H84.5808ZM109.889 0.458988L107.306 9.32781C107.097 10.0681 106.502 10.5523 105.818 10.5523C105.133 10.5523 104.531 10.0681 104.323 9.32781L101.729 0.460466H96.4293L100.805 15.4442H101.788C102.681 15.4442 103.277 16.0557 103.277 16.9736V26.759H108.337V16.9722C108.337 16.0542 108.932 15.4427 109.826 15.4427H110.807L115.183 0.458988H109.889ZM161.918 0.458988H148.226V20.3361C148.226 21.4377 147.506 22.1706 146.441 22.1706C145.375 22.1706 144.655 21.4377 144.655 20.3361V0.458988H130.963V26.7575H136.023V6.88037C136.023 5.78028 136.744 5.0459 137.809 5.0459C138.874 5.0459 139.59 5.77436 139.59 6.88037V26.7575H153.282V6.88037C153.282 5.78028 154.003 5.0459 155.069 5.0459C156.136 5.0459 156.855 5.7862 156.855 6.88037V26.7575H161.93V0.458988H161.918ZM181.832 0.458988H170.346L166.418 26.7575H171.537L172.668 19.1131C172.967 17.0951 174.336 15.7492 176.091 15.7492C177.847 15.7492 179.225 17.0951 179.513 19.1131L180.644 26.7575H185.765L181.836 0.458988H181.832ZM178.319 8.86882C178.319 10.2443 177.427 11.1623 176.087 11.1623C174.747 11.1623 173.854 10.2443 173.854 8.86882V7.95085C173.854 6.57536 174.748 5.65739 176.087 5.65739C177.426 5.65739 178.319 6.57536 178.319 7.95085V8.86882ZM203.783 15.7492C203.513 14.9093 203.362 14.0335 203.337 13.1492C203.367 12.266 203.518 11.3914 203.783 10.5508L207.087 0.458988H201.732L198.876 9.17975C198.751 9.57507 198.508 9.92031 198.183 10.1672C197.857 10.4141 197.465 10.5503 197.06 10.5567C195.988 10.5567 195.273 9.8164 195.273 8.72076V0.458988H190.213V26.7575H195.273V17.5777C195.273 16.4776 195.993 15.7433 197.06 15.7433C197.464 15.7496 197.857 15.8856 198.182 16.1322C198.508 16.3788 198.75 16.7237 198.876 17.1187L202.12 26.7516H207.473L203.782 15.7433L203.783 15.7492ZM218.981 5.65739H226.871V0.458988H211.991V26.7575H226.875V21.5591H218.986C217.833 21.5591 217.051 20.764 217.051 19.5721V18.0426C217.051 16.8493 217.825 16.0542 218.986 16.0542H226.875V10.8558H218.986C217.468 10.8558 216.456 9.81936 216.456 8.25733C216.456 6.69529 217.465 5.65739 218.986 5.65739H218.981ZM247.136 10.8558V0.458988H231.958V26.7575H237.018V18.8037C237.018 17.1528 238.091 16.0512 239.698 16.0512H247.14C248.747 16.0512 249.82 17.1528 249.82 18.8037V26.7545H254.88V18.8037C254.88 14.0332 251.784 10.8528 247.14 10.8528L247.136 10.8558ZM239.545 11.4673C237.671 11.4673 236.419 10.1836 236.419 8.25733C236.419 6.33106 237.67 5.0459 239.545 5.0459C241.42 5.0459 242.671 6.32958 242.671 8.25733C242.671 10.1851 241.42 11.4673 239.545 11.4673ZM266.416 16.0572H267.011C268.619 16.0572 269.69 17.1587 269.69 18.8096C269.69 20.4605 268.619 21.562 267.011 21.562H259.426V26.7604H274.159V10.8558H266.42C264.902 10.8558 263.891 9.81936 263.891 8.25733C263.891 6.69529 264.899 5.65739 266.42 5.65739H274.159V0.458988H266.42C261.866 0.458988 258.83 3.57714 258.83 8.25733C258.83 12.9375 261.866 16.0542 266.42 16.0542L266.416 16.0572ZM306.249 0.458988H294.759L290.829 26.7575H295.95L297.081 19.1131C297.378 17.0951 298.747 15.7492 300.504 15.7492C302.261 15.7492 303.63 17.0951 303.927 19.1131L305.058 26.7575H310.179L306.249 0.458988ZM302.739 8.86882C302.739 10.2443 301.846 11.1623 300.507 11.1623C299.168 11.1623 298.271 10.2443 298.271 8.86882V7.95085C298.271 6.57536 299.165 5.65739 300.504 5.65739C301.843 5.65739 302.736 6.57536 302.736 7.95085V8.86882H302.739ZM322.437 22.0181C320.292 22.0181 318.864 20.5493 318.864 18.3476V8.87178C318.864 6.67012 320.292 5.20136 322.437 5.20136C324.581 5.20136 326.008 6.67012 326.008 8.87178H331.068C331.068 3.55049 327.609 0.00295958 322.437 0.00295958C317.264 0.00295958 313.804 3.55641 313.804 8.87178V18.3476C313.804 23.6689 317.263 27.2165 322.437 27.2165C327.611 27.2165 331.068 23.663 331.068 18.3476H326.008C326.008 20.5493 324.58 22.0181 322.437 22.0181ZM350.04 0.458988H338.55L334.62 26.7575H339.74L340.872 19.1131C341.169 17.0951 342.538 15.7492 344.295 15.7492C346.052 15.7492 347.419 17.0951 347.718 19.1131L348.849 26.7575H353.968L350.04 0.458988ZM346.527 8.86882C346.527 10.2443 345.634 11.1623 344.295 11.1623C342.956 11.1623 342.062 10.2443 342.062 8.86882V7.95085C342.062 6.57536 342.954 5.65739 344.295 5.65739C345.635 5.65739 346.527 6.57536 346.527 7.95085V8.86882ZM366.452 0.458988H358.416V26.7575H366.452C373.062 26.7575 377.466 22.2313 377.466 15.4427V11.7738C377.466 4.98519 373.062 0.458988 366.452 0.458988ZM372.406 15.4427C372.406 19.1131 370.025 21.5591 366.452 21.5591C364.667 21.5591 363.476 20.3361 363.476 18.5016V8.71483C363.476 6.88036 364.667 5.65739 366.452 5.65739C370.025 5.65739 372.406 8.10334 372.406 11.7738V15.4427ZM389.461 5.65739H397.348V0.458988H382.465V26.7575H397.348V21.5591H389.461C388.299 21.5591 387.525 20.764 387.525 19.5721V18.0426C387.525 16.8493 388.299 16.0542 389.461 16.0542H397.348V10.8558H389.461C387.941 10.8558 386.93 9.81936 386.93 8.25733C386.93 6.69529 387.939 5.65739 389.461 5.65739ZM433.391 0.458988H419.699V20.3361C419.699 21.4377 418.979 22.1706 417.914 22.1706C416.849 22.1706 416.128 21.4377 416.128 20.3361V0.458988H402.436V26.7575H407.496V6.88037C407.496 5.78028 408.217 5.0459 409.282 5.0459C410.347 5.0459 411.068 5.7862 411.068 6.88037V26.7575H424.76V6.88037C424.76 5.78028 425.48 5.0459 426.547 5.0459C427.613 5.0459 428.332 5.7862 428.332 6.88037V26.7575H433.393V0.458988H433.391ZM450.701 0.458988L448.106 9.32632C447.899 10.0666 447.303 10.5508 446.619 10.5508C445.934 10.5508 445.342 10.0681 445.134 9.32781L442.54 0.460466H437.242L441.618 15.4442H442.599C443.493 15.4442 444.088 16.0557 444.088 16.9736V26.759H449.148V16.9722C449.148 16.0542 449.743 15.4427 450.637 15.4427H451.62L455.996 0.458988H450.701Z" fill="white"/>
</svg>
