<svg width="57" height="22" viewBox="0 0 57 22" fill="none" xmlns="http://www.w3.org/2000/svg">
<path d="M17.6755 9.29763C17.6755 7.92263 16.4423 6.74405 14.9351 6.74405C13.4279 6.74405 12.1947 7.85715 12.1947 9.29763C12.1947 10.7381 13.4279 11.8512 14.9351 11.8512C16.4423 11.8512 17.6755 10.7381 17.6755 9.29763ZM31.2404 9.29763C31.2404 7.92263 30.0072 6.74405 28.5 6.74405C26.9928 6.74405 25.7596 7.85715 25.7596 9.29763C25.7596 10.7381 26.9928 11.8512 28.5 11.8512C30.0072 11.8512 31.2404 10.7381 31.2404 9.29763ZM44.8053 9.29763C44.8053 7.92263 43.5721 6.74405 42.0649 6.74405C40.5577 6.74405 39.3245 7.85715 39.3245 9.29763C39.3245 10.7381 40.5577 11.8512 42.0649 11.8512C43.5721 11.8512 44.8053 10.7381 44.8053 9.29763ZM46.107 13.1607C46.107 15.256 44.2572 16.9583 42.0649 16.9583C39.8041 16.9583 38.0228 15.256 38.0228 13.1607V5.56548C38.0228 3.47024 39.8726 1.76786 42.0649 1.76786C44.3257 1.76786 46.107 3.47024 46.107 5.56548V13.1607ZM32.5421 13.1607C32.5421 15.256 30.6923 16.9583 28.5 16.9583C26.2392 16.9583 24.4579 15.256 24.4579 13.1607V5.56548C24.4579 3.47024 26.3077 1.76786 28.5 1.76786C30.7608 1.76786 32.5421 3.47024 32.5421 5.56548V13.1607ZM18.9772 13.1607C18.9772 15.256 17.1274 16.9583 14.9351 16.9583C12.6743 16.9583 10.893 15.256 10.893 13.1607V5.56548C10.893 3.47024 12.7428 1.76786 14.9351 1.76786C17.1959 1.76786 18.9772 3.47024 18.9772 5.56548V13.1607ZM57 22V18.2024V15.6488H56.0408L55.4243 1.6369V1.57143V1.50595L55.3558 1.44048C55.3558 1.44048 55.3558 1.44048 55.3558 1.375L53.9856 0.13096C53.9856 0.13096 53.9171 0.130956 53.9171 0.0654802L53.8485 0C53.78 0 53.7801 0 53.7115 0H3.42548C3.35697 0 3.28845 0 3.28845 0C3.28845 0 3.21996 3.99537e-06 3.21996 0.0654802H3.15142L1.78123 1.30952C1.78123 1.30952 1.78123 1.30953 1.78123 1.375L1.71274 1.44048V1.50595V1.57143L1.09614 15.5833H0V18.1369V21.9345H57V22Z" fill="#F62187"/>
</svg>
