<svg width="187" height="289" viewBox="0 0 187 289" fill="none" xmlns="http://www.w3.org/2000/svg">
<path d="M187 4.58165C187 2.11458 184.887 -0.000122163 182.422 -0.00012227L4.57823 -0.000130044C2.11307 -0.000130152 1.51664e-05 2.11457 1.50585e-05 4.58164C1.49507e-05 7.04871 2.11307 9.16331 4.57823 9.16331L10.2129 9.16331L10.2129 80.0036L4.57823 80.0036C2.11306 80.0036 1.16693e-05 82.1182 1.15614e-05 84.5852C1.14536e-05 87.0523 2.11306 89.167 4.57823 89.167L10.2129 89.167L10.2129 254.461L4.57822 254.461C2.11306 254.461 4.04351e-06 256.575 3.93567e-06 259.043C3.82784e-06 261.51 2.11306 263.624 4.57822 263.624L116.215 263.624L116.215 289L128.54 289C126.427 286.885 125.019 284.066 125.019 280.894C125.019 274.55 129.949 269.616 136.288 269.616C142.627 269.616 147.558 274.55 147.558 280.894C147.558 284.066 146.149 286.885 144.036 289L156.362 289L156.362 263.624L182.422 263.624C184.887 263.624 187 261.51 187 259.043L187 4.58165Z" fill="#FFBD01"/>
</svg>
