<svg width="101" height="39" viewBox="0 0 101 39" fill="none" xmlns="http://www.w3.org/2000/svg">
<path d="M31.3197 16.4822C31.3197 14.0447 29.1346 11.9554 26.4639 11.9554C23.7933 11.9554 21.6082 13.9286 21.6082 16.4822C21.6082 19.0357 23.7933 21.0089 26.4639 21.0089C29.1346 21.0089 31.3197 19.0357 31.3197 16.4822ZM55.3557 16.4822C55.3557 14.0447 53.1706 11.9554 50.5 11.9554C47.8293 11.9554 45.6442 13.9286 45.6442 16.4822C45.6442 19.0357 47.8293 21.0089 50.5 21.0089C53.1706 21.0089 55.3557 19.0357 55.3557 16.4822ZM79.3918 16.4822C79.3918 14.0447 77.2067 11.9554 74.5361 11.9554C71.8654 11.9554 69.6803 13.9286 69.6803 16.4822C69.6803 19.0357 71.8654 21.0089 74.5361 21.0089C77.2067 21.0089 79.3918 19.0357 79.3918 16.4822ZM81.6983 23.3304C81.6983 27.0446 78.4207 30.0625 74.5361 30.0625C70.5301 30.0625 67.3738 27.0446 67.3738 23.3304V9.86607C67.3738 6.15178 70.6515 3.13394 74.5361 3.13394C78.5421 3.13394 81.6983 6.15178 81.6983 9.86607V23.3304ZM57.6623 23.3304C57.6623 27.0446 54.3846 30.0625 50.5 30.0625C46.494 30.0625 43.3377 27.0446 43.3377 23.3304V9.86607C43.3377 6.15178 46.6153 3.13394 50.5 3.13394C54.506 3.13394 57.6623 6.15178 57.6623 9.86607V23.3304ZM33.6262 23.3304C33.6262 27.0446 30.3485 30.0625 26.4639 30.0625C22.4579 30.0625 19.3017 27.0446 19.3017 23.3304V9.86607C19.3017 6.15178 22.5793 3.13394 26.4639 3.13394C30.4699 3.13394 33.6262 6.15178 33.6262 9.86607V23.3304ZM101 39V32.2679V27.7411H99.3005L98.208 2.90179V2.78572V2.66965L98.0865 2.55359C98.0865 2.55359 98.0865 2.55358 98.0865 2.43751L95.6586 0.232157C95.6586 0.232157 95.5373 0.23215 95.5373 0.116078L95.4158 0C95.2944 0 95.2945 0 95.1731 0H6.06971C5.94832 0 5.82691 0 5.82691 0C5.82691 0 5.70554 7.08271e-06 5.70554 0.116078H5.5841L3.15622 2.32143C3.15622 2.32143 3.15622 2.32144 3.15622 2.43751L3.03486 2.55359V2.66965V2.78572L1.94228 27.625H0V32.1518V38.8839H101V39Z" fill="#F62187"/>
</svg>
